<svg width="145" height="32" viewBox="0 0 145 32" fill="none" xmlns="http://www.w3.org/2000/svg">
<path fill-rule="evenodd" clip-rule="evenodd" d="M22.1207 4.62341C20.7497 4.62341 19.6388 3.58809 19.6388 2.31747C19.6388 1.03508 20.7497 -0.000244141 22.1207 -0.000244141C23.4798 -0.000244141 24.5908 1.03508 24.5908 2.31747C24.5908 3.58809 23.4798 4.62341 22.1207 4.62341ZM12.1756 25.2588L18.6404 7.18773H14.0902L9.90644 20.6116H9.71734L5.54537 7.18773H0.983398L7.44817 25.2588H12.1756ZM19.9683 7.18773V25.2588H24.2466V7.18773H19.9683ZM26.7827 22.5529V25.2588H41.686V21.7293H32.4675V21.5764L41.3787 10.0937V7.18773H27.09V10.7172H36.1431V10.8702L26.7827 22.5529ZM43.8548 25.2588V22.5529L53.2151 10.8702V10.7172H44.162V7.18773H58.4507V10.0937L49.5395 21.5764V21.7293H58.758V25.2588H43.8548ZM72.733 7.18773V17.6586C72.733 20.4116 70.7593 21.7764 68.8683 21.7764C66.8119 21.7764 65.4409 20.3293 65.4409 18.0351V7.18773H61.1626V18.6939C61.1626 23.0352 63.6445 25.4941 67.2137 25.4941C69.932 25.4941 71.8466 24.0706 72.6739 22.047H72.863V25.2588H77.0113V7.18773H72.733ZM85.0092 25.623C81.5463 25.623 78.9344 23.7406 78.9344 20.1876C78.9344 16.1169 82.3027 15.0698 85.8247 14.6933C86.0116 14.6734 86.1921 14.6545 86.3661 14.6362L86.3686 14.6359L86.3702 14.6357C89.1746 14.3412 90.3158 14.2213 90.3158 13.0697V12.9992C90.3158 11.2226 89.2284 10.2108 87.2429 10.2108C85.151 10.2108 83.9455 11.2697 83.5201 12.505L79.5254 11.9403C80.4709 8.6461 83.4019 6.95194 87.2193 6.95194C90.6821 6.95194 94.5941 8.38727 94.5941 13.1639V25.2583H90.4812V22.7759H90.3394C89.5594 24.2936 87.8575 25.623 85.0092 25.623ZM90.3279 18.7779C90.3279 20.7897 88.6969 22.4957 86.1205 22.4957C84.3359 22.4957 83.0595 21.6839 83.0595 20.1191C83.0595 18.4838 84.4895 17.8014 86.4041 17.5308L86.5945 17.505L86.5946 17.505C87.7635 17.347 89.8023 17.0715 90.3279 16.6484V18.7779ZM101.56 1.16406V25.2588H97.2821V1.16406H101.56ZM104.331 7.18773V25.2588H108.61V7.18773H104.331ZM106.483 4.62341C105.112 4.62341 104.001 3.58809 104.001 2.31747C104.001 1.03508 105.112 -0.000244141 106.483 -0.000244141C107.842 -0.000244141 108.953 1.03508 108.953 2.31747C108.953 3.58809 107.842 4.62341 106.483 4.62341ZM120.444 10.4819V7.18771H116.863V2.85819H112.585V7.18771H110.008V10.4819H112.585V20.5293C112.561 23.9293 115.043 25.6 118.258 25.5059C119.475 25.4706 120.314 25.2353 120.775 25.0823L120.054 21.7528C119.818 21.8116 119.333 21.9175 118.801 21.9175C117.726 21.9175 116.863 21.541 116.863 19.8234V10.4819H120.444ZM125.062 32.0002C123.892 32.0002 122.852 31.7884 122.273 31.5413L123.266 28.2354C125.133 28.7648 126.362 28.6118 127.178 26.6118L127.544 25.6353L120.961 7.18773H125.499L129.683 20.8352H129.872L134.068 7.18773L138.642 7.21126L131.35 27.4471C130.321 30.2825 128.395 32.0002 125.062 32.0002ZM138.87 22.9315C138.859 24.3668 140.029 25.5198 141.47 25.5198C142.865 25.5198 144.059 24.3668 144.071 22.9315C144.059 21.5197 142.865 20.3667 141.47 20.3667C140.029 20.3667 138.859 21.5197 138.87 22.9315Z" fill="black"/>
</svg>
