<?xml version="1.0" encoding="utf-8"?>
<!-- Generator: Adobe Illustrator 27.9.0, SVG Export Plug-In . SVG Version: 6.00 Build 0)  -->
<svg version="1.1" id="logo_kleur" xmlns="http://www.w3.org/2000/svg" xmlns:xlink="http://www.w3.org/1999/xlink" x="0px" y="0px"
	 viewBox="0 0 229.4 113.4" style="enable-background:new 0 0 229.4 113.4;" xml:space="preserve">
<style type="text/css">
	.st0{fill:none;}
	.st1{fill:#FFFFFF;}
	.st2{fill:#007CAF;}
	.st3{fill:#C8D400;}
</style>
<rect x="-0.1" class="st0" width="229.6" height="113.4"/>
<g>
	<path class="st1" d="M48.5,79c0.5-1.6,2.7-4.9,6.3-6.7c6.2-2.9,12.4-3.7,13.1-3.9c3.2-0.6,4.8-1.8,5.2-2.5c1.8-2.5,0.8-4.7,0-6.1
		s-2.3-2.2-2.7-3.2c-0.3-0.8,1.1-1.8-1.5-3.5c-0.2-0.1-0.3-0.2-0.3-0.6c0.2-2.5-2.9-2.8-1.9-3.7c1-0.9,3.3-4.5-2.5-5.8
		C63.8,43,59.4,42,59,42c-1.4-0.3-2.7-0.7-4-1.2c-0.3-0.1-1.6-0.7-2.2-2.5c-0.1-0.3-0.8-1.6-1.2-2.1c-1.3-1.6-3.5-3.7-7.3-4.8
		c-0.4,0.2-0.9,0.4-1.3,0.7c2.8,1.1,4.8,2.3,5.9,3.7c0.4,0.5,0.8,1,1,1.6s0.4,1.2,0.5,1.9c0.1,0.3,0.1,0.6,0.3,0.9
		c0.1,0.3,0.3,0.6,0.5,0.8c0.2,0.2,0.5,0.4,0.8,0.6c0.3,0.2,0.6,0.3,0.9,0.5c1.2,0.6,2.5,1,3.8,1.4c0.6,0.2,3.2,0.9,3.9,1.1
		c0.6,0.2,1.3,0.4,1.9,0.7c0.3,0.2,0.6,0.3,0.8,0.6c0.2,0.2,0.4,0.5,0.4,0.8c0,0.3-0.1,0.6-0.3,0.9c-0.2,0.3-0.4,0.5-0.7,0.7
		c-0.2,0.2-0.5,0.4-0.8,0.7c-0.1,0.1-0.3,0.2-0.4,0.4c0,0.1-0.1,0.2-0.1,0.2c0,0,0,0.1,0,0.1c0,0,0,0,0,0c0,0,0,0,0,0
		c0,0,0.1,0.1,0.1,0.1c0.1,0.1,0.3,0.2,0.4,0.3c0.1,0.1,0.3,0.2,0.4,0.3c0.3,0.2,0.6,0.3,0.9,0.5c0.3,0.2,0.6,0.4,0.8,0.6
		c0.2,0.2,0.5,0.5,0.6,0.8c0,0.1,0,0.2,0.1,0.2c0,0.1,0,0.2,0,0.2c0,0.2,0,0.3,0,0.5c0,0.2-0.1,0.3-0.1,0.5s0,0.4,0,0.5
		c0.1,0.2,0.2,0.3,0.4,0.4c0.2,0.1,0.3,0.2,0.4,0.3c0.1,0.1,0.3,0.2,0.4,0.3s0.2,0.2,0.2,0.4c0,0.2,0,0.3-0.1,0.4
		c-0.1,0.2-0.2,0.3-0.2,0.5c-0.1,0.2-0.1,0.3-0.1,0.5c0,0.2,0.1,0.4,0.2,0.5l1.4,1.5c0.5,0.5,0.8,1,1.1,1.7c0.2,0.5,0.2,0.8,0,1.3
		c-0.2,0.6-0.6,1.2-1.2,1.5c-0.3,0.2-0.6,0.3-0.9,0.5s-0.6,0.2-1,0.4c-3.4,1.1-11.7,1.3-18.4,3.2c-4.6,1.3-8.7,4.2-12.1,7.2
		c2.8,3.4,6.4,6.2,10.5,8c0.7,0.3,1.3,0.6,2,0.8C47.8,81,48.2,80,48.5,79L48.5,79z"/>
	<path class="st2" d="M65.3,64.2c0.3-0.1,0.7-0.2,1-0.3c0.3-0.1,0.6-0.3,0.9-0.5c0.6-0.4,1-0.9,1.2-1.5c0.1-0.5,0.2-0.8,0-1.3
		c-0.2-0.6-0.6-1.2-1.1-1.7l-1.4-1.5c-0.1-0.1-0.2-0.3-0.2-0.5c0-0.2,0.1-0.3,0.1-0.5c0.1-0.2,0.1-0.3,0.2-0.5
		c0.1-0.1,0.1-0.3,0.1-0.4c0-0.2-0.1-0.3-0.2-0.4c-0.1-0.1-0.2-0.2-0.4-0.3s-0.3-0.2-0.4-0.3c-0.1-0.1-0.3-0.2-0.4-0.4
		c-0.1-0.2-0.1-0.4,0-0.5s0.1-0.3,0.1-0.5s0-0.3,0-0.5c0-0.1,0-0.2,0-0.2s0-0.2-0.1-0.2c-0.1-0.3-0.4-0.5-0.6-0.8
		c-0.3-0.2-0.5-0.4-0.8-0.6c-0.3-0.2-0.6-0.4-0.9-0.5c-0.2-0.1-0.3-0.2-0.4-0.3c-0.1-0.1-0.3-0.2-0.4-0.3c0,0-0.1-0.1-0.1-0.1
		c0,0,0,0,0,0c0,0,0,0,0,0c0,0,0-0.1,0-0.1c0-0.1,0.1-0.2,0.1-0.2c0.1-0.1,0.2-0.2,0.4-0.4c0.3-0.2,0.5-0.4,0.8-0.7s0.5-0.5,0.7-0.7
		s0.3-0.6,0.3-0.9c0-0.3-0.2-0.6-0.4-0.8c-0.2-0.2-0.5-0.4-0.8-0.6c-0.6-0.3-1.2-0.5-1.9-0.7c-0.7-0.2-3.2-0.9-3.9-1.1
		c-1.3-0.4-2.5-0.8-3.8-1.4c-0.3-0.2-0.6-0.3-0.9-0.5s-0.6-0.4-0.8-0.6c-0.2-0.2-0.4-0.5-0.5-0.8c-0.1-0.3-0.2-0.6-0.3-0.9
		c-0.1-0.6-0.3-1.3-0.5-1.9c-0.2-0.6-0.6-1.1-1-1.6c-1.1-1.3-3.1-2.6-5.9-3.7C34.3,36.7,28.4,46,28.4,56.7c0,6.8,2.4,13.1,6.4,18
		c3.3-3.1,7.5-5.9,12.1-7.2C53.6,65.5,61.9,65.3,65.3,64.2L65.3,64.2z"/>
	<path class="st3" d="M51.6,36c0.5,0.6,1.1,1.8,1.2,2.1c0.6,1.9,1.9,2.4,2.2,2.5c1.3,0.5,2.6,0.9,4,1.2c0.3,0.1,4.8,1.1,5.3,1.2
		c5.8,1.3,3.5,4.8,2.5,5.8c-1,0.9,2,1.2,1.9,3.7c0,0.5,0.2,0.5,0.3,0.6c2.6,1.7,1.2,2.6,1.5,3.5c0.4,0.9,1.8,1.7,2.7,3.2
		c0.8,1.5,1.8,3.6,0,6.1c-0.5,0.7-2,1.8-5.2,2.5c-0.7,0.1-7,1-13.1,3.9c-3.7,1.7-5.8,5.1-6.3,6.7c-0.3,1-0.7,2-1.1,4.5
		c2.9,1,6,1.6,9.3,1.6C72.4,85,85,72.3,85,56.7S72.4,28.3,56.7,28.3c-4.5,0-8.7,1-12.4,2.9C48.1,32.3,50.3,34.4,51.6,36L51.6,36z"/>
	<g>
		<path class="st2" d="M96.2,43.6c0.6-0.1,1.3-0.2,2.1-0.2c0.3,0,0.6,0,0.9,0s0.6,0.1,0.9,0.1l1.6,13.7l4.1-13.7
			c0.3,0,0.7-0.1,0.9-0.1c0.3,0,0.6,0,0.9,0c0.5,0,1.1,0,1.6,0.2l2.3,14l3.6-14c0.5-0.1,1.1-0.2,1.6-0.2c0.3,0,0.7,0,1,0
			s0.6,0.1,0.9,0.1l-5.6,18.1c-0.6,0.1-1.2,0.2-1.9,0.2s-1.3,0-2.1-0.2L107,49.7l-4,12.1c-0.4,0-0.8,0.1-1.1,0.1c-0.3,0-0.7,0-1,0
			c-0.5,0-1.1,0-1.7-0.2C99.2,61.8,96.2,43.6,96.2,43.6z"/>
		<path class="st2" d="M121.2,56.4c0,1,0.3,1.7,0.9,2.2c0.6,0.5,1.4,0.7,2.5,0.7c0.6,0,1.2,0,1.8-0.2c0.6-0.1,1.2-0.3,1.7-0.5
			c0.2,0.3,0.3,0.7,0.4,1.2c0.1,0.5,0.1,1,0.1,1.5c-1.3,0.5-2.8,0.8-4.5,0.8c-1.2,0-2.2-0.2-3.1-0.5c-0.8-0.3-1.5-0.8-2-1.4
			c-0.5-0.6-0.9-1.3-1.1-2.1s-0.3-1.7-0.2-2.7c0.1-1,0.3-1.9,0.6-2.7c0.3-0.8,0.8-1.6,1.3-2.2s1.3-1.1,2.1-1.5
			c0.8-0.4,1.7-0.5,2.8-0.5c0.9,0,1.7,0.2,2.4,0.5s1.2,0.8,1.7,1.3c0.5,0.6,0.8,1.2,1,2c0.2,0.8,0.3,1.6,0.2,2.5
			c0,0.3-0.1,0.6-0.1,1c-0.1,0.3-0.1,0.6-0.1,0.7L121.2,56.4L121.2,56.4z M126.5,53.9c0-0.8-0.2-1.5-0.5-2s-0.9-0.7-1.7-0.7
			c-0.8,0-1.5,0.2-2,0.7c-0.5,0.5-0.8,1.1-0.9,2H126.5z"/>
		<path class="st2" d="M142.3,43.3c0.6-0.1,1.2-0.2,1.8-0.2s1.2,0,1.8,0.2l-0.9,13.2c0,0.5,0,0.9,0,1.3s0.1,0.6,0.2,0.8
			c0.1,0.2,0.3,0.3,0.5,0.4s0.4,0.1,0.8,0.1c0.1,0,0.3,0,0.4,0s0.3,0,0.5-0.1c0.1,0.7,0.2,1.4,0.1,2c0,0.1,0,0.3,0,0.4
			c0,0.1,0,0.2-0.1,0.4c-0.3,0.1-0.6,0.1-1,0.2c-0.4,0-0.7,0-1.1,0c-1.3,0-2.3-0.4-3-1.1c-0.7-0.7-1-1.9-0.9-3.5L142.3,43.3
			L142.3,43.3z"/>
		<path class="st2" d="M156.6,53.2c0-0.4,0-0.7-0.1-1c-0.1-0.2-0.3-0.5-0.5-0.6c-0.2-0.1-0.5-0.2-0.9-0.3c-0.3,0-0.7-0.1-1.1-0.1
			c-0.9,0-1.9,0.2-2.9,0.5c-0.2-0.4-0.4-0.8-0.4-1.2c-0.1-0.4-0.1-0.8-0.1-1.4c0.8-0.2,1.5-0.4,2.3-0.6c0.8-0.1,1.4-0.2,2.1-0.2
			c1.8,0,3.1,0.4,4,1.3c0.9,0.8,1.3,2.2,1.2,4l-0.5,7.6c-0.6,0.2-1.3,0.4-2.2,0.5c-0.9,0.2-1.8,0.2-2.9,0.2c-0.9,0-1.6-0.1-2.3-0.2
			c-0.7-0.2-1.3-0.4-1.8-0.8c-0.5-0.3-0.9-0.8-1.1-1.4c-0.2-0.5-0.3-1.2-0.3-2c0.1-0.8,0.3-1.5,0.7-2s0.9-1,1.4-1.3
			c0.6-0.3,1.2-0.6,1.9-0.7c0.7-0.1,1.4-0.2,2-0.2c0.5,0,1,0,1.6,0.1L156.6,53.2L156.6,53.2z M156.4,55.8c-0.2,0-0.4-0.1-0.6-0.1
			s-0.4,0-0.6,0c-0.8,0-1.5,0.2-2,0.4c-0.5,0.3-0.8,0.8-0.8,1.4c0,0.4,0,0.8,0.2,1c0.2,0.2,0.4,0.4,0.6,0.5s0.5,0.2,0.8,0.2
			c0.3,0,0.6,0,0.8,0c0.2,0,0.5,0,0.8-0.1c0.3,0,0.5-0.1,0.7-0.1L156.4,55.8L156.4,55.8z"/>
		<path class="st2" d="M163.6,48.7c0.2,0,0.5-0.1,0.7-0.1s0.5,0,0.8,0s0.5,0,0.8,0c0.2,0,0.4,0.1,0.7,0.1c0,0.1,0.1,0.2,0.1,0.4
			s0.1,0.3,0.1,0.5c0,0.2,0,0.3,0.1,0.5c0,0.2,0,0.3,0,0.4c0.2-0.2,0.4-0.5,0.7-0.8s0.5-0.5,0.9-0.7c0.3-0.2,0.7-0.4,1.1-0.5
			c0.4-0.1,0.8-0.2,1.3-0.2c1.5,0,2.6,0.4,3.3,1.2c0.7,0.8,1,2.1,0.9,3.8l-0.6,8.3c-0.6,0.1-1.2,0.2-1.8,0.2s-1.2,0-1.8-0.2l0.5-7.4
			c0.1-0.9,0-1.6-0.3-2.1c-0.2-0.5-0.7-0.7-1.4-0.7c-0.3,0-0.6,0-0.9,0.1c-0.3,0.1-0.6,0.2-0.9,0.5c-0.3,0.2-0.5,0.6-0.7,1
			c-0.2,0.4-0.3,1-0.4,1.7l-0.5,6.8c-0.6,0.1-1.2,0.2-1.8,0.2s-1.2,0-1.8-0.2L163.6,48.7L163.6,48.7z"/>
		<path class="st2" d="M186.2,43.3c0.3,0,0.6-0.1,0.9-0.1c0.3,0,0.6,0,0.9,0s0.6,0,0.9,0c0.3,0,0.6,0,0.9,0.1l-1.3,18
			c-0.8,0.2-1.6,0.4-2.4,0.5c-0.8,0.1-1.8,0.2-3,0.2c-0.9,0-1.7-0.1-2.5-0.4c-0.8-0.2-1.5-0.6-2.1-1.2s-1-1.2-1.3-2.1
			c-0.3-0.8-0.4-1.9-0.3-3.1c0.1-1,0.3-1.9,0.7-2.7c0.4-0.8,0.9-1.6,1.5-2.2c0.6-0.6,1.4-1.1,2.2-1.5c0.9-0.4,1.8-0.5,2.8-0.5
			c0.3,0,0.6,0,0.9,0c0.3,0,0.6,0.1,0.9,0.2L186.2,43.3L186.2,43.3z M185.6,51.4c-0.3-0.1-0.6-0.1-0.8-0.2c-0.2,0-0.5,0-0.8,0
			c-0.6,0-1.1,0.1-1.5,0.3c-0.4,0.2-0.8,0.5-1.1,0.9s-0.5,0.8-0.7,1.3c-0.2,0.5-0.3,1-0.3,1.6c-0.1,0.7,0,1.3,0.1,1.8
			s0.3,0.9,0.6,1.2s0.6,0.5,1,0.6c0.4,0.1,0.8,0.2,1.3,0.2c0.3,0,0.6,0,0.8,0c0.2,0,0.5-0.1,0.8-0.2L185.6,51.4L185.6,51.4z"/>
		<path class="st2" d="M194.6,56.1c-0.9-0.3-1.6-0.7-2.1-1.2c-0.5-0.5-0.7-1.3-0.6-2.4c0.1-1.3,0.6-2.3,1.6-3s2.2-1.1,3.8-1.1
			c0.7,0,1.3,0.1,1.9,0.2c0.6,0.1,1.3,0.3,1.9,0.5c-0.1,0.4-0.2,0.9-0.4,1.4c-0.2,0.5-0.4,0.9-0.6,1.2c-0.4-0.2-0.8-0.3-1.3-0.4
			c-0.5-0.1-1-0.2-1.5-0.2c-0.6,0-1,0.1-1.4,0.3s-0.5,0.5-0.5,0.8c0,0.4,0.1,0.6,0.3,0.8c0.2,0.2,0.5,0.3,0.9,0.4l1.4,0.4
			c0.5,0.1,0.9,0.3,1.2,0.5c0.4,0.2,0.7,0.4,0.9,0.7s0.4,0.6,0.6,1.1c0.1,0.4,0.2,0.9,0.1,1.5c0,0.6-0.2,1.2-0.5,1.7
			c-0.3,0.5-0.7,1-1.2,1.4c-0.5,0.4-1.1,0.7-1.9,0.9c-0.7,0.2-1.5,0.3-2.4,0.3c-0.4,0-0.8,0-1.1,0c-0.3,0-0.6-0.1-1-0.1
			c-0.3-0.1-0.6-0.1-0.9-0.2c-0.3-0.1-0.6-0.2-1-0.3c0.1-0.5,0.2-0.9,0.3-1.4c0.2-0.5,0.4-0.9,0.6-1.3c0.5,0.2,1.1,0.4,1.5,0.5
			c0.5,0.1,1,0.2,1.5,0.2c0.2,0,0.5,0,0.8-0.1s0.5-0.1,0.8-0.2c0.2-0.1,0.4-0.2,0.6-0.4s0.3-0.4,0.3-0.7c0-0.4-0.1-0.7-0.3-0.9
			s-0.6-0.3-1-0.5L194.6,56.1L194.6,56.1z"/>
		<path class="st2" d="M139.3,48.7h-3.1l0.3-3.8h-0.6l-3.2,3.8v0h-1.5c-0.1,0.3-0.1,0.5-0.1,0.7s-0.1,0.4-0.1,0.7c0,0.2,0,0.4,0,0.6
			s0,0.4,0.1,0.7h1.5l-0.4,5.9c-0.1,1.6,0.2,2.8,1,3.5s1.9,1.1,3.4,1.1c0.8,0,1.6-0.1,2.4-0.3c0-0.1,0.1-0.2,0.1-0.4
			c0-0.1,0-0.3,0-0.5c0-0.3,0-0.6,0-0.9c0-0.3-0.1-0.7-0.2-1c-0.2,0-0.4,0.1-0.6,0.1c-0.2,0-0.5,0.1-0.8,0.1c-0.3,0-0.6,0-0.8-0.1
			c-0.2-0.1-0.4-0.2-0.6-0.4c-0.1-0.2-0.2-0.4-0.3-0.8s-0.1-0.7,0-1.3l0.4-5.1h3.1c0.1-0.3,0.1-0.5,0.1-0.7s0.1-0.5,0.1-0.7
			c0-0.2,0-0.4,0-0.6S139.3,49,139.3,48.7L139.3,48.7z"/>
	</g>
	<g>
		<path class="st2" d="M99.7,67.6c-0.1,0-0.1,0-0.2,0c-0.1,0-0.3,0-0.4,0c-0.1,0-0.1,0-0.2,0c-0.1,0-0.1,0.1-0.1,0.1l-0.4,5.7
			c0,0.1,0,0.1,0.1,0.1s0.1,0,0.2,0c0.1,0,0.2,0,0.2,0c0.1,0,0.2,0,0.2,0s0.1,0,0.2,0c0.1,0,0.1-0.1,0.1-0.1l0.4-5.7
			C99.8,67.7,99.7,67.6,99.7,67.6L99.7,67.6z"/>
		<path class="st2" d="M106.7,67.6c-0.1,0-0.1,0-0.2,0c-0.2,0-0.3,0-0.4,0c-0.1,0-0.1,0-0.2,0c-0.1,0-0.1,0.1-0.1,0.1l-0.3,3.9
			l-2-3.9c0,0-0.1-0.1-0.1-0.1c-0.1,0-0.1,0-0.2,0c-0.1,0-0.2,0-0.4,0c-0.1,0-0.1,0-0.2,0c-0.1,0-0.1,0.1-0.1,0.1l-0.4,5.7
			c0,0.1,0,0.1,0.1,0.1c0.1,0,0.1,0,0.2,0c0.1,0,0.3,0,0.4,0c0.1,0,0.1,0,0.2,0c0.1,0,0.1-0.1,0.1-0.1l0.3-3.9l2,3.9
			c0,0,0.1,0.1,0.1,0.1c0.1,0,0.1,0,0.2,0s0.1,0,0.2,0s0.1,0,0.2,0s0.1,0,0.2,0c0.1,0,0.1-0.1,0.1-0.1l0.4-5.7
			C106.8,67.7,106.7,67.6,106.7,67.6L106.7,67.6z"/>
		<path class="st2" d="M113,67.6h-3.8c-0.1,0-0.1,0-0.1,0.1c0,0.1,0,0.1,0,0.2c0,0.1,0,0.1,0,0.2c0,0.1,0,0.1,0,0.2
			c0,0.1,0,0.1,0,0.2c0,0.1,0.1,0.1,0.1,0.1h1.4l-0.3,4.9c0,0.1,0,0.1,0.1,0.1c0.1,0,0.3,0,0.4,0s0.3,0,0.4,0c0.1,0,0.1-0.1,0.1-0.1
			l0.3-4.9h1.4c0.1,0,0.1,0,0.1-0.1c0-0.1,0-0.1,0-0.2s0-0.1,0-0.2c0-0.1,0-0.1,0-0.2c0-0.1,0-0.1,0-0.2
			C113.1,67.6,113,67.6,113,67.6L113,67.6z"/>
		<path class="st2" d="M118.6,67.6h-3.2c-0.1,0-0.1,0.1-0.1,0.1l-0.4,5.7c0,0,0,0.1,0,0.1c0,0,0.1,0,0.1,0h3.2c0.1,0,0.1,0,0.1-0.1
			c0-0.1,0-0.1,0-0.2c0-0.1,0-0.1,0-0.2c0-0.1,0-0.2,0-0.4c0-0.1-0.1-0.1-0.1-0.1h-2.3l0.1-1.7h1.8c0.1,0,0.1,0,0.1-0.1
			c0-0.1,0-0.1,0-0.2s0-0.1,0-0.2c0-0.1,0-0.1,0-0.2c0-0.1,0-0.1,0-0.2c0-0.1-0.1-0.1-0.1-0.1h-1.8l0.1-1.4h2.2c0.1,0,0.1,0,0.1-0.1
			c0-0.1,0-0.1,0-0.2c0-0.1,0-0.1,0-0.2c0-0.1,0-0.3,0-0.4C118.7,67.6,118.7,67.6,118.6,67.6L118.6,67.6z"/>
		<path class="st2" d="M123.6,71.1c0.1-0.1,0.3-0.2,0.4-0.2c0.2-0.1,0.3-0.2,0.4-0.4s0.2-0.3,0.3-0.5c0.1-0.2,0.1-0.4,0.2-0.6
			c0-0.4,0-0.7-0.2-0.9c-0.1-0.2-0.3-0.4-0.5-0.6s-0.5-0.2-0.7-0.3c-0.3-0.1-0.6-0.1-0.8-0.1c-0.1,0-0.2,0-0.3,0s-0.2,0-0.3,0
			c-0.1,0-0.2,0-0.3,0s-0.2,0-0.3,0c-0.1,0-0.1,0.1-0.1,0.1l-0.4,5.8c0,0.1,0,0.1,0.1,0.1c0.1,0,0.1,0,0.2,0c0.2,0,0.3,0,0.4,0
			c0.1,0,0.1,0,0.2,0c0.1,0,0.1-0.1,0.1-0.1l0.3-5c0.1,0,0.1,0,0.2,0c0.1,0,0.2,0,0.2,0c0.3,0,0.6,0.1,0.8,0.2
			c0.2,0.2,0.3,0.4,0.2,0.8c0,0.2-0.1,0.3-0.2,0.5c-0.1,0.1-0.2,0.2-0.3,0.3s-0.3,0.2-0.4,0.2c-0.2,0.1-0.3,0.1-0.4,0.2l-0.1,0
			c0,0-0.1,0.1-0.1,0.1v0c0,0,0,0.1,0,0.1l1.7,2.7c0,0,0.1,0.1,0.1,0.1c0.2,0,0.3,0,0.4,0c0.2,0,0.3,0,0.5,0c0,0,0.1,0,0.1-0.1
			c0,0,0-0.1,0-0.1L123.6,71.1L123.6,71.1z"/>
		<path class="st2" d="M131.8,67.6c-0.1,0-0.1,0-0.2,0c-0.1,0-0.3,0-0.4,0c-0.1,0-0.1,0-0.2,0c-0.1,0-0.1,0.1-0.1,0.1l-0.3,3.9
			l-2-3.9c0,0-0.1-0.1-0.1-0.1c-0.1,0-0.1,0-0.2,0c-0.1,0-0.2,0-0.4,0c-0.1,0-0.1,0-0.2,0c-0.1,0-0.1,0.1-0.1,0.1l-0.4,5.7
			c0,0.1,0,0.1,0.1,0.1c0.1,0,0.1,0,0.2,0c0.1,0,0.3,0,0.4,0c0.1,0,0.1,0,0.2,0c0.1,0,0.1-0.1,0.1-0.1l0.3-3.9l2,3.9
			c0,0,0.1,0.1,0.1,0.1c0.1,0,0.1,0,0.2,0c0.1,0,0.1,0,0.2,0s0.1,0,0.2,0c0.1,0,0.1,0,0.2,0c0.1,0,0.1-0.1,0.1-0.1l0.4-5.7
			C131.9,67.7,131.9,67.6,131.8,67.6L131.8,67.6z"/>
		<path class="st2" d="M137.1,67.7c0,0-0.1-0.1-0.1-0.1c-0.1,0-0.2,0-0.2,0c-0.2,0-0.3,0-0.5,0c-0.1,0-0.2,0-0.2,0
			c0,0-0.1,0-0.1,0.1l-2.3,5.7c0,0,0,0.1,0,0.1c0,0,0.1,0.1,0.1,0.1c0.1,0,0.1,0,0.2,0c0.1,0,0.3,0,0.4,0c0.1,0,0.1,0,0.2,0
			c0,0,0.1,0,0.1-0.1l0.5-1.2h2l0.3,1.2c0,0,0.1,0.1,0.1,0.1c0.1,0,0.1,0,0.2,0s0.1,0,0.2,0c0.1,0,0.2,0,0.2,0s0.2,0,0.2,0
			c0,0,0.1,0,0.1-0.1c0,0,0-0.1,0-0.1L137.1,67.7L137.1,67.7z M137,71.3h-1.4l0.9-2.4L137,71.3L137,71.3z"/>
		<path class="st2" d="M144.1,67.6h-3.8c-0.1,0-0.1,0-0.1,0.1c0,0.1,0,0.1,0,0.2c0,0.1,0,0.1,0,0.2c0,0.1,0,0.1,0,0.2
			c0,0.1,0,0.1,0,0.2c0,0.1,0.1,0.1,0.1,0.1h1.4l-0.3,4.9c0,0.1,0,0.1,0.1,0.1c0.1,0,0.3,0,0.4,0s0.3,0,0.4,0c0.1,0,0.1-0.1,0.1-0.1
			l0.3-4.9h1.4c0.1,0,0.1,0,0.1-0.1c0-0.1,0-0.1,0-0.2s0-0.1,0-0.2c0-0.1,0-0.1,0-0.2c0-0.1,0-0.1,0-0.2
			C144.2,67.6,144.2,67.6,144.1,67.6L144.1,67.6z"/>
		<path class="st2" d="M147.4,67.6c-0.1,0-0.1,0-0.2,0c-0.1,0-0.3,0-0.4,0c-0.1,0-0.1,0-0.2,0c-0.1,0-0.1,0.1-0.1,0.1l-0.4,5.7
			c0,0.1,0,0.1,0.1,0.1c0.1,0,0.1,0,0.2,0c0.1,0,0.1,0,0.2,0c0.1,0,0.1,0,0.2,0s0.1,0,0.2,0c0.1,0,0.1-0.1,0.1-0.1l0.4-5.7
			C147.6,67.7,147.5,67.6,147.4,67.6L147.4,67.6z"/>
		<path class="st2" d="M154.5,68.4c-0.2-0.3-0.4-0.5-0.8-0.7s-0.7-0.2-1.1-0.2s-0.8,0.1-1.1,0.2c-0.3,0.2-0.6,0.4-0.8,0.7
			c-0.2,0.3-0.4,0.6-0.5,1c-0.1,0.4-0.2,0.8-0.2,1.2s0,0.8,0.1,1.2c0.1,0.4,0.2,0.7,0.4,1c0.2,0.3,0.4,0.5,0.8,0.7s0.7,0.2,1.1,0.2
			s0.8-0.1,1.1-0.2c0.3-0.2,0.6-0.4,0.8-0.7c0.2-0.3,0.4-0.6,0.5-1c0.1-0.4,0.2-0.8,0.2-1.2s0-0.8-0.1-1.2
			C154.9,69,154.7,68.7,154.5,68.4L154.5,68.4z M152.3,72.7c-0.2,0-0.5-0.1-0.6-0.1c-0.2-0.1-0.3-0.2-0.4-0.4s-0.2-0.4-0.2-0.7
			c0-0.3-0.1-0.6,0-0.9c0-0.3,0.1-0.6,0.2-0.9c0.1-0.3,0.2-0.5,0.3-0.7s0.3-0.3,0.5-0.4c0.2-0.1,0.4-0.1,0.6-0.1s0.4,0.1,0.6,0.1
			s0.3,0.2,0.4,0.4c0.1,0.2,0.2,0.4,0.2,0.7c0,0.3,0.1,0.6,0,0.9c0,0.3-0.1,0.7-0.2,0.9c-0.1,0.3-0.2,0.5-0.3,0.7
			c-0.1,0.2-0.3,0.3-0.5,0.4C152.8,72.7,152.5,72.7,152.3,72.7z"/>
		<path class="st2" d="M161.9,67.6c-0.1,0-0.1,0-0.2,0c-0.1,0-0.3,0-0.4,0c-0.1,0-0.1,0-0.2,0c-0.1,0-0.1,0.1-0.1,0.1l-0.3,3.9
			l-2-3.9c0,0-0.1-0.1-0.1-0.1c-0.1,0-0.1,0-0.2,0c-0.1,0-0.2,0-0.4,0c-0.1,0-0.1,0-0.2,0c-0.1,0-0.1,0.1-0.1,0.1l-0.4,5.7
			c0,0.1,0,0.1,0.1,0.1c0.1,0,0.1,0,0.2,0c0.1,0,0.3,0,0.4,0c0.1,0,0.1,0,0.2,0c0.1,0,0.1-0.1,0.1-0.1l0.3-3.9l2,3.9
			c0,0,0.1,0.1,0.1,0.1c0.1,0,0.1,0,0.2,0c0.1,0,0.1,0,0.2,0s0.1,0,0.2,0c0.1,0,0.1,0,0.2,0c0.1,0,0.1-0.1,0.1-0.1l0.4-5.7
			C162,67.7,162,67.6,161.9,67.6L161.9,67.6z"/>
		<path class="st2" d="M167.3,67.7c0,0-0.1-0.1-0.1-0.1c-0.1,0-0.2,0-0.2,0c-0.2,0-0.3,0-0.5,0c-0.1,0-0.2,0-0.2,0
			c0,0-0.1,0-0.1,0.1l-2.3,5.7c0,0,0,0.1,0,0.1s0.1,0.1,0.1,0.1c0.1,0,0.1,0,0.2,0c0.1,0,0.3,0,0.4,0c0.1,0,0.1,0,0.2,0
			c0,0,0.1,0,0.1-0.1l0.5-1.2h2l0.3,1.2c0,0,0.1,0.1,0.1,0.1c0.1,0,0.1,0,0.2,0s0.1,0,0.2,0c0.1,0,0.2,0,0.2,0s0.2,0,0.2,0
			c0,0,0.1,0,0.1-0.1c0,0,0-0.1,0-0.1L167.3,67.7L167.3,67.7z M167.1,71.3h-1.4l0.9-2.4L167.1,71.3L167.1,71.3z"/>
		<path class="st2" d="M174.3,72.7c0-0.1-0.1-0.1-0.1-0.1H172l0.3-4.9c0-0.1,0-0.1-0.1-0.1c-0.1,0-0.1,0-0.2,0c-0.1,0-0.3,0-0.4,0
			c-0.1,0-0.1,0-0.2,0c-0.1,0-0.1,0.1-0.1,0.1l-0.4,5.7c0,0,0,0.1,0,0.1c0,0,0.1,0,0.1,0h3.1c0.1,0,0.1,0,0.1-0.1
			c0-0.1,0-0.2,0.1-0.4c0-0.1,0-0.1,0-0.2C174.3,72.9,174.3,72.8,174.3,72.7L174.3,72.7z"/>
	</g>
</g>
</svg>
