<svg width="156" height="50" viewBox="0 0 156 50" fill="none" xmlns="http://www.w3.org/2000/svg">
<path d="M18.9479 44.6319C19.4057 43.262 21.321 40.2687 24.5802 38.77C30.0821 36.2392 35.6435 35.4817 36.3018 35.3529C39.2029 34.7939 40.5524 33.7683 40.9871 33.177C42.6146 30.9573 41.7378 29.0721 40.9871 27.7881C40.2365 26.509 38.9414 25.8058 38.6032 24.973C38.3104 24.2471 39.5832 23.4038 37.2817 21.9318C37.1399 21.8403 36.9823 21.7649 37.0095 21.3672C37.1671 19.1645 34.4466 18.9336 35.3391 18.1332C36.2424 17.3166 38.3104 14.1953 33.0806 13.0506C32.6343 12.9266 28.6237 12.0728 28.3185 11.9975C27.1002 11.6969 25.8752 11.3526 24.7493 10.9176C24.4663 10.8042 23.3016 10.3157 22.7951 8.66628C22.7027 8.37626 22.1261 7.29071 21.7013 6.78034C20.5589 5.39425 18.5833 3.50831 15.16 2.51917C14.7739 2.70792 14.3928 2.90154 14.0175 3.10568C16.521 4.04055 18.3226 5.1739 19.2852 6.34531C19.6498 6.79087 19.9823 7.26884 20.2108 7.78488C20.4335 8.30659 20.5539 8.86476 20.6677 9.42373C20.728 9.70322 20.7931 9.98838 20.907 10.2565C21.0216 10.5255 21.1899 10.7774 21.4019 10.9929C21.6147 11.2076 21.8597 11.3793 22.1154 11.5357C22.3711 11.6912 22.6376 11.8257 22.9098 11.9545C23.9986 12.4649 25.1304 12.8513 26.2728 13.2167C26.8445 13.3949 29.1682 14.0065 29.7448 14.1677C30.3164 14.3298 30.893 14.5064 31.4152 14.7753C31.6766 14.9098 31.9216 15.0702 32.1122 15.28C32.3019 15.4842 32.4331 15.7369 32.4603 16.0107C32.4603 16.2846 32.3349 16.5535 32.1716 16.7901C31.9953 17.0278 31.7928 17.2457 31.5678 17.4398C31.345 17.6439 31.1108 17.8327 30.8823 18.0312C30.7648 18.1318 30.6538 18.2395 30.5499 18.3536C30.4925 18.4176 30.4533 18.4952 30.436 18.5788C30.436 18.6007 30.436 18.6274 30.441 18.6541C30.441 18.6598 30.4467 18.676 30.4517 18.6865C30.4517 18.7027 30.4632 18.7076 30.4682 18.7189C30.4914 18.7546 30.5191 18.7873 30.5507 18.8161C30.6645 18.9279 30.7948 19.0138 30.926 19.0948C31.0563 19.1807 31.1867 19.256 31.3178 19.337C31.5785 19.4926 31.8457 19.6481 32.1015 19.8093C32.3572 19.9714 32.6071 20.1423 32.8414 20.3302C33.0699 20.519 33.2868 20.7337 33.3957 20.9913C33.4237 21.0561 33.4345 21.1209 33.4452 21.1954C33.4559 21.2651 33.4617 21.3413 33.4666 21.4109C33.479 21.5539 33.4774 21.6977 33.4617 21.8403C33.4452 21.9796 33.4073 22.1198 33.3743 22.2648C33.3418 22.4206 33.3532 22.5823 33.4073 22.7322C33.4889 22.8934 33.625 22.9793 33.7496 23.0708C33.8807 23.1567 34.0111 23.2321 34.1414 23.3123C34.2668 23.3933 34.3922 23.4791 34.4895 23.5812C34.5908 23.6735 34.6579 23.7964 34.68 23.9304C34.6965 24.0648 34.6471 24.1937 34.5769 24.3168C34.5059 24.4496 34.4426 24.5861 34.3872 24.7259C34.3256 24.8686 34.2939 25.0221 34.294 25.1771C34.3016 25.3381 34.365 25.4916 34.4738 25.6122L35.6922 26.9335C36.1063 27.3579 36.4428 27.8578 36.6342 28.4062C36.7975 28.8737 36.7645 29.1045 36.6449 29.5339C36.4923 30.0929 36.0898 30.5708 35.5948 30.9046C35.3413 31.0705 35.0712 31.2108 34.7889 31.3234C34.506 31.4417 34.2181 31.5438 33.9236 31.6353C30.9046 32.5856 23.4641 32.8173 17.4837 34.4877C13.365 35.6429 9.68606 38.1786 6.7041 40.8714C9.23764 43.9148 12.4669 46.328 16.1292 47.9145C16.7231 48.1672 17.3261 48.4038 17.9415 48.6128C18.3605 46.4206 18.6591 45.5077 18.9536 44.6271L18.9479 44.6319Z" fill="white"/>
<path d="M33.9127 31.6397C34.2064 31.5482 34.4951 31.4461 34.778 31.3287C35.061 31.2104 35.3332 31.0759 35.5831 30.909C36.078 30.5761 36.4814 30.0981 36.6332 29.5391C36.7528 29.1098 36.7916 28.8829 36.6225 28.4107C36.4327 27.863 36.0945 27.3632 35.6813 26.9387L34.4621 25.6174C34.3639 25.4991 34.2823 25.3428 34.2823 25.1816C34.2823 25.0203 34.326 24.8705 34.3746 24.7303C34.4291 24.591 34.4951 24.4565 34.5652 24.322C34.6361 24.1989 34.6848 24.0644 34.6691 23.9356C34.6576 23.806 34.5817 23.6885 34.4786 23.5864C34.3735 23.484 34.2566 23.3937 34.1305 23.3175C34.0051 23.2365 33.869 23.1619 33.7387 23.0753C33.6133 22.9894 33.4714 22.8987 33.3955 22.7375C33.3387 22.5881 33.3272 22.4257 33.3625 22.27C33.3955 22.1193 33.4335 21.9849 33.45 21.8455C33.4664 21.7054 33.4664 21.5604 33.4557 21.4162C33.45 21.3457 33.4392 21.2703 33.4335 21.2007C33.426 21.1308 33.4093 21.0622 33.384 20.9965C33.2808 20.7381 33.0581 20.5291 32.8296 20.3355C32.5943 20.1468 32.3472 19.9729 32.0897 19.8146C31.834 19.6526 31.5725 19.497 31.3061 19.3415L30.9143 19.1001C30.7831 19.0134 30.6585 18.9332 30.5389 18.8206C30.5072 18.7918 30.4795 18.7591 30.4564 18.7234C30.4515 18.7128 30.4457 18.7072 30.4399 18.691C30.435 18.6807 30.4317 18.6698 30.43 18.6585C30.4204 18.6349 30.4183 18.6089 30.4243 18.584C30.4408 18.4868 30.4903 18.4228 30.5389 18.358C30.642 18.2349 30.7559 18.1385 30.8705 18.0364C31.099 17.8371 31.3382 17.6492 31.556 17.445C31.7787 17.2409 31.9916 17.0318 32.1607 16.7945C32.3289 16.5587 32.4543 16.2898 32.4494 16.016C32.4157 15.742 32.2934 15.4859 32.1004 15.2852C31.9099 15.0811 31.66 14.9199 31.4042 14.7797C30.8813 14.5116 30.3096 14.3342 29.733 14.1722C29.1556 14.0118 26.8327 13.3993 26.2611 13.2219C25.1186 12.8565 23.9811 12.4701 22.898 11.9597C22.6259 11.8337 22.3607 11.6936 22.1037 11.5401C21.848 11.3846 21.598 11.2128 21.391 10.9973C21.1785 10.7864 21.0103 10.5365 20.896 10.2618C20.7814 9.9928 20.7162 9.70845 20.6568 9.42897C20.5413 8.86999 20.4226 8.31668 20.199 7.79011C19.9763 7.27407 19.6439 6.79044 19.2743 6.34974C18.3109 5.17913 16.5093 4.04011 14.0066 3.11011C10.0365 5.28109 6.73017 8.45584 4.43073 12.305C2.13129 16.1541 0.922482 20.5374 0.92972 25.0001C0.921182 30.7879 2.95791 36.3992 6.69236 40.8766C9.66937 38.1846 13.3533 35.649 17.4728 34.493C23.4532 32.8225 30.892 32.5916 33.9127 31.6414V31.6397Z" fill="url(#paint0_radial_6982_48345)"/>
<path d="M21.7045 6.78063C22.1293 7.291 22.7059 8.37655 22.7983 8.66738C23.3097 10.3168 24.4744 10.8061 24.7524 10.9179C25.8784 11.3586 27.1034 11.6972 28.3217 11.9977C28.6269 12.0731 32.6375 12.9277 33.0838 13.0509C38.3078 14.1907 36.2455 17.3169 35.3415 18.1335C34.4498 18.9396 37.1702 19.1656 37.0127 21.3683C36.9855 21.7652 37.143 21.8414 37.2849 21.9321C39.5921 23.4098 38.3185 24.2531 38.6072 24.9733C38.9446 25.8061 40.2396 26.51 40.9911 27.7892C41.7417 29.0676 42.6178 30.9535 40.9911 33.1781C40.5547 33.7743 39.2003 34.7999 36.3058 35.354C35.6409 35.4828 30.0853 36.2346 24.5842 38.7711C21.3234 40.2698 19.408 43.2623 18.951 44.6322C18.6574 45.5136 18.3579 46.4217 17.9389 48.6196C20.6121 49.5343 23.4229 50.0009 26.2537 50C40.2396 50 51.5752 38.8083 51.5752 25C51.5752 11.1925 40.2281 1.02059e-05 26.2488 1.02059e-05C22.4043 -0.00342233 18.6102 0.859036 15.1582 2.52107C18.5815 3.50455 20.5562 5.39048 21.6995 6.78225H21.7045V6.78063Z" fill="url(#paint1_radial_6982_48345)"/>
<path d="M61.5332 13.4912C62.1469 13.3955 62.7678 13.3505 63.3892 13.3568C63.6614 13.3568 63.9328 13.3624 64.2108 13.3778C64.4879 13.394 64.7601 13.4321 65.0274 13.4912L66.4957 25.5262L70.1417 13.4912C70.4469 13.4483 70.7241 13.4102 70.9855 13.3892C71.7341 13.3223 72.4885 13.3567 73.2276 13.4912L75.2568 25.8373L78.4516 13.4912C78.9302 13.4003 79.4167 13.3553 79.9042 13.3568C80.2036 13.3568 80.4981 13.373 80.781 13.3997C81.064 13.4264 81.3354 13.4588 81.6076 13.4912L76.5741 29.4909C76.0248 29.5825 75.4638 29.6254 74.8765 29.6254C74.2884 29.6254 73.6846 29.5825 73.0148 29.4909L71.181 18.8315L67.6332 29.4909C67.3114 29.5146 66.9902 29.5451 66.6698 29.5825C65.8637 29.6613 65.0504 29.6305 64.2528 29.4909L61.5332 13.4912ZM83.8323 24.7032C83.8323 25.5943 84.0987 26.2391 84.6432 26.6369C85.1876 27.0347 85.9217 27.2388 86.8522 27.2388C87.3644 27.2388 87.8866 27.1902 88.431 27.093C88.9595 27.0012 89.4785 26.863 89.9818 26.6798C90.1286 26.9755 90.2425 27.3304 90.3357 27.7492C90.428 28.1873 90.4646 28.6349 90.4446 29.0818C89.2419 29.5274 87.9031 29.7477 86.434 29.7477C85.3509 29.7477 84.4361 29.5979 83.6797 29.3022C82.929 29.0065 82.3252 28.5925 81.8732 28.0659C81.422 27.5394 81.106 26.9107 80.9262 26.1865C80.7472 25.4606 80.687 24.6651 80.7472 23.8056C80.8066 22.9622 80.9864 22.1667 81.2752 21.4255C81.5511 20.7122 81.9607 20.056 82.4828 19.4909C83.0013 18.9365 83.6314 18.4938 84.333 18.1907C85.0564 17.8748 85.8788 17.7127 86.8142 17.7127C87.6251 17.7127 88.3378 17.8529 88.9474 18.1372C89.5385 18.4056 90.061 18.8003 90.4767 19.2924C90.8851 19.7818 91.1787 20.3667 91.3528 21.0382C91.5326 21.7155 91.5928 22.4357 91.5384 23.2093C91.5219 23.4888 91.4889 23.7683 91.4452 24.0421C91.4142 24.2624 91.3726 24.4811 91.3206 24.6975H83.8381L83.8323 24.7032ZM88.5614 22.4997C88.5828 21.7852 88.4253 21.2156 88.0879 20.7749C87.7505 20.3399 87.2498 20.1196 86.5915 20.1196C85.8401 20.1196 85.2527 20.3294 84.8337 20.7434C84.4147 21.1565 84.1375 21.7422 84.0121 22.4997H88.5614ZM102.712 13.2223C103.244 13.1334 103.783 13.0887 104.323 13.0886C104.851 13.0886 105.357 13.1316 105.891 13.2223L105.063 24.9033C105.03 25.365 105.03 25.7361 105.063 26.0155C105.096 26.2999 105.161 26.5154 105.264 26.6709C105.368 26.8265 105.504 26.9342 105.678 26.9934C105.853 27.0525 106.075 27.0849 106.348 27.0849C106.467 27.0849 106.597 27.0792 106.744 27.063C106.885 27.0475 107.025 27.0258 107.163 26.9982C107.284 27.6058 107.327 28.202 107.284 28.7772C107.278 28.8955 107.267 29.0024 107.261 29.0996C107.254 29.2094 107.232 29.3177 107.196 29.4221C106.91 29.5027 106.617 29.5548 106.32 29.5776C106.009 29.6039 105.697 29.6182 105.384 29.6205C104.225 29.6205 103.322 29.3038 102.669 28.6751C102.016 28.0465 101.738 27.0144 101.836 25.5911L102.712 13.2223ZM115.471 21.9196C115.498 21.5648 115.454 21.2748 115.351 21.0496C115.255 20.835 115.096 20.6534 114.894 20.5279C114.693 20.4047 114.442 20.3189 114.132 20.2702C113.793 20.225 113.451 20.2034 113.109 20.2054C112.298 20.2054 111.422 20.3618 110.486 20.6737C110.315 20.3247 110.182 19.959 110.089 19.5825C110.008 19.2438 109.985 18.8355 110.018 18.3576C110.676 18.14 111.351 17.9766 112.037 17.8691C112.652 17.7704 113.274 17.7181 113.898 17.7127C115.46 17.7127 116.657 18.0838 117.478 18.825C118.306 19.5663 118.66 20.7531 118.545 22.3871L118.072 29.0599C117.533 29.222 116.885 29.3775 116.124 29.5274C115.362 29.6781 114.507 29.7477 113.56 29.7477C112.793 29.7477 112.097 29.6829 111.471 29.5492C110.84 29.4148 110.312 29.1944 109.871 28.8825C109.439 28.5781 109.102 28.1616 108.897 27.6795C108.684 27.1902 108.604 26.5891 108.652 25.8794C108.701 25.1649 108.897 24.5687 109.24 24.0907C109.572 23.6156 110.009 23.2206 110.519 22.9355C111.04 22.6415 111.606 22.4309 112.195 22.3117C112.793 22.1884 113.402 22.1254 114.012 22.1238C114.448 22.1238 114.926 22.1457 115.449 22.1886L115.465 21.9196H115.471ZM115.307 24.2082C115.114 24.179 114.92 24.1541 114.725 24.1337C114.539 24.1134 114.352 24.1026 114.165 24.1013C113.425 24.1013 112.837 24.2301 112.391 24.4877C111.944 24.7461 111.699 25.1649 111.661 25.745C111.634 26.1322 111.694 26.4279 111.846 26.6369C111.999 26.8467 112.184 26.9966 112.412 27.0938C112.644 27.1916 112.89 27.2516 113.141 27.2712C113.403 27.2923 113.631 27.3036 113.828 27.3036C114.05 27.3036 114.279 27.2818 114.507 27.2493C114.736 27.2121 114.932 27.1797 115.1 27.1473L115.307 24.2082ZM121.701 17.9817C121.913 17.9388 122.126 17.9063 122.338 17.8796C122.55 17.8577 122.784 17.8472 123.04 17.8472C123.468 17.8394 123.896 17.8846 124.313 17.9817C124.351 18.057 124.389 18.164 124.417 18.3041C124.444 18.4434 124.465 18.5941 124.488 18.7497C124.503 18.9052 124.52 19.0559 124.53 19.2066C124.542 19.3573 124.553 19.4804 124.558 19.5825C124.727 19.3573 124.917 19.1369 125.146 18.9166C125.374 18.6962 125.63 18.4921 125.924 18.3146C126.212 18.1372 126.533 17.9922 126.893 17.8796C127.246 17.7662 127.633 17.7127 128.052 17.7127C129.374 17.7127 130.343 18.0676 130.963 18.7821C131.583 19.4966 131.834 20.6145 131.73 22.14L131.214 29.4844C130.669 29.576 130.131 29.6189 129.603 29.6189C129.075 29.6189 128.547 29.576 128.014 29.4844L128.476 22.989C128.53 22.1886 128.454 21.5705 128.237 21.1403C128.019 20.7109 127.606 20.4963 126.985 20.4963C126.73 20.4963 126.462 20.5335 126.191 20.6089C125.905 20.6914 125.643 20.8406 125.429 21.0439C125.194 21.2586 124.999 21.5599 124.836 21.9464C124.672 22.3336 124.569 22.8383 124.525 23.4613L124.096 29.4901C123.551 29.5817 123.013 29.6246 122.485 29.6246C121.957 29.6246 121.429 29.5817 120.896 29.4901L121.712 17.9865L121.701 17.9817ZM141.92 13.2207C142.191 13.1785 142.463 13.1461 142.725 13.1299C142.991 13.1137 143.247 13.1089 143.503 13.1089C143.758 13.1089 144.02 13.1194 144.292 13.1299C144.564 13.1461 144.831 13.1729 145.097 13.2215L143.971 29.1085C143.247 29.3184 142.524 29.4739 141.784 29.5865C141.049 29.6999 140.162 29.7534 139.123 29.7534C138.327 29.7534 137.572 29.6457 136.858 29.431C136.17 29.229 135.536 28.8783 135.003 28.4046C134.48 27.9371 134.083 27.3352 133.811 26.5891C133.539 25.847 133.447 24.9446 133.518 23.8752C133.577 23.0327 133.773 22.2315 134.105 21.4854C134.42 20.7598 134.872 20.0995 135.438 19.5395C136.004 18.9837 136.675 18.542 137.413 18.2393C138.17 17.9225 139.003 17.7613 139.906 17.7613C140.178 17.7613 140.456 17.7719 140.749 17.7937C141.031 17.8131 141.311 17.8617 141.582 17.9388L141.92 13.2207ZM141.413 20.3618C141.176 20.2971 140.934 20.2484 140.69 20.216C140.455 20.1924 140.218 20.1818 139.982 20.1844C139.487 20.1844 139.046 20.2864 138.666 20.4849C138.288 20.6806 137.957 20.9539 137.696 21.2861C137.423 21.6393 137.217 22.0377 137.087 22.4624C136.941 22.9214 136.85 23.3955 136.815 23.8752C136.772 24.4828 136.815 24.9989 136.929 25.4225C137.049 25.847 137.229 26.1808 137.479 26.4328C137.724 26.6855 138.023 26.8686 138.377 26.9812C138.731 27.0946 139.117 27.1473 139.536 27.1473C139.792 27.1473 140.026 27.1367 140.238 27.1149C140.45 27.0938 140.684 27.0452 140.946 26.9707L141.413 20.3618ZM149.385 24.4836C148.558 24.2471 147.927 23.8923 147.486 23.4248C147.045 22.9574 146.86 22.2591 146.925 21.3242C147.007 20.1957 147.475 19.3151 148.341 18.6751C149.205 18.036 150.343 17.7192 151.752 17.7192C152.34 17.7192 152.911 17.7727 153.477 17.8748C154.058 17.9811 154.628 18.1375 155.181 18.3422C155.114 18.7518 155.011 19.1547 154.87 19.546C154.718 19.9592 154.555 20.3253 154.364 20.6364C153.986 20.4763 153.594 20.3471 153.194 20.25C152.75 20.1361 152.293 20.08 151.834 20.0831C151.323 20.0831 150.92 20.1585 150.626 20.3197C150.326 20.4752 150.169 20.7223 150.147 21.0666C150.125 21.3939 150.207 21.6256 150.403 21.7544C150.593 21.8888 150.876 22.012 151.241 22.1303L152.498 22.5062C152.911 22.6244 153.282 22.7694 153.608 22.9412C153.934 23.1137 154.206 23.3227 154.43 23.5755C154.653 23.8283 154.816 24.1393 154.931 24.5104C155.039 24.8814 155.078 25.3326 155.034 25.8697C154.999 26.4089 154.843 26.9337 154.577 27.4065C154.302 27.8893 153.928 28.3102 153.477 28.6419C153.01 28.9911 152.454 29.2657 151.807 29.4642C151.164 29.6627 150.441 29.7647 149.646 29.7647C149.287 29.7647 148.955 29.7542 148.656 29.7323C148.367 29.7122 148.08 29.6745 147.796 29.6197C147.518 29.5663 147.252 29.5071 146.985 29.4318C146.695 29.3478 146.408 29.2511 146.126 29.1418C146.185 28.7448 146.283 28.3357 146.425 27.9274C146.566 27.5184 146.741 27.1213 146.947 26.7398C147.432 26.9342 147.889 27.0784 148.324 27.1756C148.776 27.2738 149.238 27.3224 149.701 27.3206C149.913 27.3206 150.141 27.2988 150.392 27.2664C150.642 27.2291 150.876 27.1643 151.094 27.0679C151.312 26.9707 151.497 26.8475 151.649 26.692C151.801 26.5356 151.889 26.3315 151.905 26.0795C151.932 25.7247 151.839 25.4671 151.633 25.3108C151.426 25.1552 151.132 25.0151 150.751 24.8976L149.38 24.4942L149.385 24.4836ZM100.035 17.9825H97.3084L97.5485 14.6246H97.0313L94.1631 17.9444V17.9874H92.8087C92.7542 18.2004 92.7088 18.4155 92.6726 18.6322C92.6454 18.8258 92.6231 19.0243 92.6066 19.2341C92.5908 19.42 92.5856 19.6066 92.5909 19.7931C92.5909 19.9705 92.6066 20.169 92.6396 20.395H93.9841L93.6138 25.6008C93.5156 27.0249 93.7985 28.0505 94.4791 28.6849C95.1538 29.3135 96.1767 29.6303 97.5427 29.6303C98.2777 29.6303 98.9953 29.5492 99.7031 29.3832C99.7245 29.2811 99.741 29.1742 99.7575 29.0608C99.774 28.9481 99.7847 28.8137 99.7954 28.6476C99.8119 28.411 99.812 28.1372 99.7847 27.8359C99.7643 27.5391 99.7095 27.2456 99.6214 26.9609C99.4531 26.9869 99.2568 27.0249 99.039 27.0622C98.818 27.0991 98.5942 27.117 98.3701 27.1157C98.0813 27.1157 97.8363 27.0889 97.6301 27.0249C97.4297 26.9694 97.2523 26.8529 97.1236 26.692C96.9933 26.53 96.9009 26.3048 96.8465 26.0253C96.792 25.7458 96.7805 25.3756 96.8135 24.913L97.1344 20.395H99.8606C99.9151 20.182 99.9605 19.9669 99.9967 19.7502C100.024 19.5565 100.046 19.3581 100.062 19.1482C100.078 18.9546 100.084 18.7724 100.078 18.5893C100.078 18.4119 100.057 18.2134 100.03 17.9874L100.035 17.9825ZM64.6166 34.6165C64.4278 34.5857 64.2357 34.5784 64.045 34.5946C63.979 34.5946 63.9146 34.606 63.8552 34.6165C63.8319 34.6212 63.8107 34.6332 63.795 34.6507C63.7792 34.6683 63.7697 34.6904 63.7678 34.7137L63.4082 39.7745C63.4082 39.8279 63.4412 39.8765 63.4956 39.8879C63.55 39.8976 63.6094 39.9033 63.6804 39.9089C63.7464 39.9089 63.8107 39.9138 63.8759 39.9138C63.9468 39.9138 64.0128 39.9138 64.078 39.9089C64.1431 39.9089 64.2025 39.8976 64.2627 39.8871C64.3122 39.8765 64.3494 39.8385 64.3494 39.7898L64.709 34.7291C64.709 34.6756 64.676 34.627 64.6216 34.6165H64.6166ZM70.9064 34.6157C70.7286 34.5851 70.5474 34.578 70.3677 34.5946C70.304 34.5961 70.2405 34.6031 70.178 34.6157C70.1285 34.627 70.0906 34.6643 70.0906 34.7129L69.8456 38.1397L68.0498 34.6748C68.0417 34.661 68.0307 34.649 68.0174 34.6398C68.0042 34.6306 67.989 34.6243 67.9731 34.6213C67.9139 34.6108 67.8541 34.6035 67.7941 34.5995C67.6761 34.5887 67.5573 34.5887 67.4394 34.5995C67.3791 34.601 67.3192 34.6083 67.2604 34.6213C67.237 34.626 67.2159 34.638 67.2001 34.6556C67.1843 34.6731 67.1748 34.6952 67.1729 34.7186L66.8141 39.7793C66.8141 39.8328 66.8471 39.8765 66.8966 39.8863C66.9444 39.8976 67.0047 39.9025 67.0698 39.9081C67.1947 39.9189 67.3203 39.9189 67.4451 39.9081C67.5111 39.9081 67.5705 39.8976 67.625 39.8863C67.6481 39.8815 67.6691 39.8696 67.6849 39.8522C67.7006 39.8348 67.7103 39.813 67.7124 39.7898L67.9516 36.3833L69.7523 39.8328C69.7688 39.8595 69.7961 39.8814 69.8291 39.8863C69.8835 39.8976 69.9429 39.9025 70.0089 39.9081C70.0683 39.9081 70.1285 39.9138 70.1821 39.9138C70.2374 39.9138 70.2976 39.9138 70.3619 39.9081C70.4279 39.9081 70.4873 39.8976 70.5418 39.8863C70.5649 39.8815 70.5859 39.8696 70.6017 39.8522C70.6174 39.8348 70.6271 39.813 70.6292 39.7898L70.988 34.7291C70.988 34.6748 70.955 34.6262 70.9014 34.6157H70.9064ZM76.5246 34.6173H73.1228C73.0742 34.6173 73.0362 34.6497 73.0197 34.6926C73.0029 34.7453 72.9919 34.7997 72.9867 34.8547C72.976 34.913 72.9702 34.9665 72.9653 35.0207V35.1925C72.9653 35.2516 72.9653 35.3107 72.976 35.3594C72.9818 35.4128 73.0255 35.4501 73.0799 35.4501H74.3041L73.9989 39.7704C73.9989 39.8239 74.0376 39.8725 74.0921 39.883C74.2117 39.8992 74.3371 39.9041 74.4732 39.9041C74.6084 39.9041 74.7289 39.8992 74.8427 39.883C74.867 39.8793 74.8892 39.8677 74.906 39.8501C74.9227 39.8325 74.933 39.8098 74.9351 39.7858L75.2403 35.4501H76.4752C76.5246 35.4501 76.5626 35.4177 76.5791 35.3748C76.5898 35.3261 76.6055 35.2678 76.6121 35.203C76.622 35.1439 76.6278 35.0847 76.6335 35.0313V34.87C76.6335 34.8166 76.6335 34.7623 76.622 34.7145C76.6199 34.6892 76.6081 34.6657 76.5889 34.6487C76.5697 34.6317 76.5447 34.6225 76.5189 34.623L76.5246 34.6173ZM81.5861 34.6181H78.7675C78.7131 34.6181 78.6636 34.661 78.6636 34.7153L78.3047 39.7761C78.3047 39.8028 78.3097 39.8352 78.332 39.8571C78.3419 39.867 78.3537 39.8749 78.3667 39.8803C78.3797 39.8858 78.3937 39.8886 78.4079 39.8887H81.2867C81.3362 39.8887 81.3791 39.8563 81.3898 39.8133C81.4063 39.7599 81.4121 39.7056 81.4228 39.6416L81.4393 39.4747C81.4502 39.3659 81.4502 39.2563 81.4393 39.1474C81.4393 39.0932 81.3898 39.0502 81.3354 39.0502H79.3004L79.4093 37.5296H80.9815C81.031 37.5296 81.0689 37.4972 81.0854 37.4551C81.1027 37.4009 81.1138 37.3449 81.1184 37.2882C81.1291 37.2291 81.1349 37.17 81.1399 37.1165V36.9496C81.1399 36.8905 81.1399 36.8362 81.1291 36.7884C81.1268 36.7631 81.1148 36.7396 81.0955 36.7228C81.0762 36.7059 81.051 36.6969 81.0252 36.6977H79.4695L79.5561 35.4558H81.5531C81.6026 35.4558 81.6406 35.4234 81.6571 35.3812C81.6736 35.327 81.6843 35.2735 81.6901 35.2087L81.7057 35.0426C81.7167 34.9335 81.7167 34.8236 81.7057 34.7145C81.7057 34.661 81.6563 34.6173 81.6026 34.6173L81.5861 34.6181ZM85.977 37.6909C86.0966 37.6317 86.2162 37.5612 86.3416 37.4762C86.6198 37.288 86.8417 37.0301 86.9842 36.7293C87.0633 36.5601 87.1095 36.378 87.1203 36.1922C87.1417 35.8697 87.098 35.5959 86.9891 35.3804C86.8841 35.1731 86.7268 34.9958 86.5321 34.8652C86.3313 34.738 86.1081 34.6487 85.8739 34.6019C85.6303 34.554 85.3824 34.5304 85.134 34.5314C85.0251 34.5314 84.9211 34.5314 84.8288 34.5371C84.7364 34.5371 84.6489 34.5476 84.5623 34.5533C84.4749 34.559 84.3932 34.5695 84.3066 34.58C84.2127 34.5924 84.1183 34.6013 84.0237 34.6068C83.9692 34.6068 83.9313 34.6554 83.9255 34.704L83.5667 39.7704C83.5667 39.8239 83.5989 39.8725 83.6533 39.883C83.7135 39.8935 83.7787 39.8992 83.8496 39.9041C83.9857 39.9041 84.0946 39.9097 84.2307 39.9041C84.2959 39.9041 84.3553 39.8935 84.4097 39.8879C84.4592 39.8879 84.5021 39.8457 84.5079 39.7915L84.8238 35.3699C84.8725 35.3699 84.9211 35.3594 84.9649 35.3594C85.03 35.3594 85.1067 35.3537 85.1826 35.3537C85.4986 35.3537 85.7436 35.429 85.9118 35.574C86.0809 35.7199 86.1461 35.9337 86.1238 36.2399C86.1164 36.3873 86.0695 36.5301 85.9877 36.6539C85.9054 36.7709 85.8046 36.8743 85.6891 36.9601C85.5694 37.0454 85.4395 37.1159 85.3022 37.17C85.1612 37.2234 85.0251 37.2672 84.8997 37.2988L84.8395 37.315C84.8182 37.3207 84.7991 37.3324 84.7846 37.3487C84.7701 37.3649 84.7608 37.3851 84.7578 37.4065V37.4332C84.7578 37.4332 84.7578 37.4762 84.7694 37.498L86.2492 39.8401C86.2492 39.8401 86.2929 39.883 86.3251 39.8887C86.4563 39.9049 86.5924 39.9097 86.7227 39.9097C86.886 39.9097 87.0386 39.9041 87.1689 39.8887C87.2069 39.8887 87.2341 39.8619 87.2506 39.8295C87.2587 39.8137 87.263 39.7962 87.263 39.7785C87.263 39.7608 87.2587 39.7433 87.2506 39.7275L85.972 37.6909H85.977ZM93.3391 34.6165C93.1613 34.5859 92.9801 34.5788 92.8004 34.5954C92.7364 34.5968 92.6726 34.6039 92.6099 34.6165C92.5612 34.6278 92.5233 34.6651 92.5233 34.7137L92.2783 38.1405L90.4825 34.6756C90.4744 34.6619 90.4635 34.6501 90.4504 34.6409C90.4373 34.6317 90.4224 34.6253 90.4066 34.6222C90.3471 34.6116 90.2871 34.6043 90.2268 34.6003C90.1091 34.5895 89.9906 34.5895 89.8729 34.6003C89.8124 34.6017 89.7522 34.609 89.6931 34.6222C89.6699 34.627 89.6489 34.6391 89.6333 34.6566C89.6177 34.6741 89.6083 34.6962 89.6065 34.7194L89.2468 39.7801C89.2468 39.8336 89.2798 39.8773 89.3285 39.8871C89.378 39.8984 89.4374 39.9033 89.5025 39.9089C89.623 39.9195 89.7475 39.9195 89.8787 39.9089C89.9439 39.9089 90.0033 39.8984 90.0577 39.8871C90.0809 39.8823 90.1019 39.8704 90.1176 39.853C90.1333 39.8357 90.143 39.8138 90.1451 39.7907L90.3843 36.3841L92.1859 39.8336C92.2024 39.8603 92.2296 39.8822 92.2618 39.8871C92.3162 39.8984 92.3764 39.9033 92.4416 39.9089C92.5068 39.9089 92.5612 39.9138 92.6157 39.9138C92.6701 39.9138 92.7303 39.9138 92.7955 39.9089C92.8606 39.9089 92.92 39.8984 92.9745 39.8871C92.9976 39.8823 93.0186 39.8704 93.0344 39.853C93.0501 39.8357 93.0598 39.8138 93.0619 39.7907L93.4207 34.7291C93.4207 34.6756 93.3886 34.6278 93.3341 34.6165H93.3391ZM98.1028 34.6918C98.0974 34.6724 98.0863 34.6549 98.0709 34.6415C98.0555 34.6281 98.0365 34.6194 98.0162 34.6165C97.7999 34.5857 97.5808 34.5786 97.3629 34.5954C97.287 34.5954 97.216 34.606 97.1509 34.6165C97.1129 34.6165 97.0857 34.6489 97.0692 34.6813L95.0392 39.7421C95.0285 39.7697 95.0285 39.8003 95.0392 39.8279C95.0467 39.8412 95.0569 39.8528 95.069 39.8621C95.0812 39.8714 95.0952 39.8783 95.1101 39.8822C95.3026 39.9125 95.4982 39.9198 95.6925 39.9041C95.7576 39.9041 95.8228 39.8927 95.888 39.8822C95.9259 39.8822 95.9589 39.8498 95.9696 39.8174L96.378 38.7156H98.1737L98.4294 39.8069C98.4402 39.8498 98.4732 39.8765 98.5169 39.8879C98.5763 39.8984 98.6414 39.9041 98.7066 39.9089C98.7726 39.9089 98.8378 39.9138 98.9029 39.9138C98.9739 39.9138 99.044 39.9138 99.1207 39.9089C99.1966 39.9089 99.2618 39.8984 99.322 39.8871C99.3492 39.8871 99.3764 39.866 99.3929 39.8385C99.4086 39.8148 99.4143 39.786 99.4086 39.7583L98.1028 34.6975V34.6918ZM97.9774 37.878H96.6988L97.4883 35.7612L97.9832 37.878H97.9774ZM104.337 34.6181H100.936C100.888 34.6181 100.85 34.6505 100.833 34.6934C100.816 34.7462 100.805 34.8005 100.8 34.8555C100.789 34.9138 100.784 34.9673 100.779 35.0215C100.779 35.075 100.773 35.1341 100.779 35.1933C100.779 35.2524 100.779 35.3116 100.789 35.3602C100.793 35.385 100.805 35.4078 100.824 35.4244C100.843 35.4411 100.867 35.4505 100.893 35.4509H102.117L101.812 39.7712C101.812 39.8247 101.851 39.8733 101.905 39.8838C102.025 39.9 102.15 39.9049 102.286 39.9049C102.422 39.9049 102.541 39.9 102.656 39.8838C102.705 39.8782 102.743 39.8352 102.749 39.7866L103.053 35.4509H104.294C104.343 35.4509 104.381 35.4185 104.397 35.3756C104.408 35.327 104.425 35.2686 104.43 35.2038C104.441 35.1447 104.446 35.0855 104.452 35.0321V34.8709C104.452 34.8174 104.452 34.7631 104.441 34.7153C104.439 34.69 104.427 34.6664 104.408 34.6494C104.388 34.6324 104.363 34.6233 104.337 34.6238V34.6181ZM107.313 34.6157C107.125 34.5851 106.933 34.578 106.743 34.5946C106.677 34.5946 106.611 34.6051 106.552 34.6157C106.503 34.627 106.465 34.6643 106.465 34.7129L106.106 39.7736C106.106 39.8271 106.138 39.8757 106.192 39.8871C106.247 39.8976 106.307 39.9033 106.378 39.9081C106.443 39.9081 106.508 39.9138 106.574 39.9138C106.644 39.9138 106.71 39.9138 106.77 39.9081C106.835 39.9081 106.894 39.8976 106.955 39.8863C107.003 39.8757 107.042 39.8376 107.042 39.7898L107.401 34.7291C107.401 34.6748 107.368 34.6262 107.313 34.6157ZM113.646 35.3205C113.474 35.0747 113.242 34.8752 112.971 34.7404C112.693 34.6011 112.362 34.5306 111.976 34.5306C111.589 34.5306 111.246 34.6011 110.952 34.7404C110.662 34.8758 110.406 35.0722 110.201 35.3156C109.991 35.5718 109.829 35.8625 109.722 36.1743C109.604 36.5221 109.533 36.8835 109.51 37.2493C109.483 37.6366 109.504 38.0019 109.57 38.3244C109.635 38.6565 109.761 38.9473 109.929 39.1896C110.103 39.4366 110.327 39.6294 110.604 39.7647C110.882 39.8984 111.213 39.9681 111.6 39.9681C111.986 39.9681 112.329 39.8984 112.623 39.7639C112.917 39.6294 113.167 39.4366 113.374 39.1944C113.575 38.953 113.738 38.6622 113.847 38.3349C113.956 38.0068 114.027 37.6471 114.054 37.2607C114.084 36.9015 114.066 36.5401 114 36.1857C113.943 35.8765 113.823 35.5821 113.646 35.3205ZM111.643 39.141C111.425 39.141 111.235 39.098 111.088 39.017C110.941 38.936 110.816 38.8129 110.724 38.6573C110.622 38.4733 110.553 38.2731 110.522 38.0659C110.482 37.7994 110.473 37.5293 110.495 37.2607C110.517 36.965 110.56 36.696 110.637 36.4546C110.707 36.2181 110.805 36.0188 110.925 35.8584C111.039 35.702 111.18 35.5789 111.35 35.4922C111.513 35.412 111.708 35.3691 111.926 35.3691C112.144 35.3691 112.335 35.412 112.481 35.493C112.634 35.5732 112.754 35.6972 112.846 35.847C112.938 36.0091 113.009 36.2075 113.047 36.4384C113.085 36.675 113.097 36.9488 113.074 37.2388C113.057 37.5117 113.009 37.7819 112.933 38.0449C112.87 38.2575 112.773 38.4589 112.645 38.6411C112.536 38.7957 112.39 38.9213 112.22 39.0065C112.039 39.0944 111.84 39.1369 111.638 39.1304L111.643 39.141ZM120.248 34.6173C120.07 34.5867 119.889 34.5796 119.709 34.5962C119.645 34.5977 119.581 34.6047 119.518 34.6173C119.47 34.6278 119.432 34.6659 119.432 34.7145L119.187 38.1413L117.391 34.6764C117.383 34.6626 117.372 34.6506 117.359 34.6413C117.346 34.6319 117.331 34.6254 117.315 34.6222C117.256 34.6119 117.196 34.6048 117.135 34.6011C117.018 34.5903 116.899 34.5903 116.781 34.6011C116.716 34.6011 116.656 34.6116 116.602 34.6222C116.578 34.627 116.557 34.6391 116.542 34.6566C116.526 34.6741 116.517 34.6962 116.515 34.7194L116.156 39.7801C116.156 39.8344 116.188 39.8773 116.237 39.8879C116.419 39.9182 116.604 39.9255 116.787 39.9097C116.847 39.9083 116.907 39.901 116.966 39.8879C116.99 39.8831 117.011 39.871 117.026 39.8535C117.042 39.836 117.052 39.8139 117.054 39.7907L117.293 36.385L119.094 39.8344C119.111 39.8611 119.138 39.883 119.17 39.8879C119.225 39.8984 119.285 39.9041 119.35 39.9089C119.415 39.9089 119.47 39.9146 119.524 39.9146C119.579 39.9146 119.639 39.9146 119.704 39.9089C119.769 39.9089 119.829 39.8984 119.883 39.8879C119.906 39.8831 119.927 39.871 119.943 39.8535C119.959 39.836 119.968 39.8139 119.97 39.7907L120.329 34.7299C120.329 34.6764 120.297 34.6278 120.243 34.6165L120.248 34.6173ZM125.011 34.6918C125.006 34.6723 124.994 34.6549 124.979 34.6415C124.963 34.6281 124.944 34.6195 124.924 34.6165C124.854 34.6064 124.783 34.5994 124.712 34.5954C124.565 34.5846 124.417 34.5846 124.271 34.5954C124.195 34.5954 124.124 34.606 124.059 34.6165C124.021 34.6165 123.988 34.6489 123.977 34.6813L121.947 39.7421C121.941 39.7558 121.939 39.7708 121.94 39.7856C121.941 39.8005 121.945 39.815 121.953 39.8279C121.96 39.8412 121.97 39.8528 121.983 39.8621C121.995 39.8714 122.009 39.8783 122.024 39.8822C122.216 39.9125 122.412 39.9198 122.606 39.9041C122.671 39.9041 122.736 39.8927 122.801 39.8822C122.839 39.8822 122.872 39.8498 122.883 39.8174L123.291 38.7156H125.081L125.337 39.8069C125.342 39.8271 125.354 39.8454 125.369 39.8597C125.384 39.8741 125.404 39.8838 125.425 39.8879C125.484 39.8984 125.55 39.9041 125.615 39.9089C125.68 39.9089 125.745 39.9138 125.811 39.9138C125.882 39.9138 125.953 39.9138 126.028 39.9089C126.105 39.9089 126.17 39.8984 126.235 39.8871C126.263 39.8871 126.29 39.866 126.306 39.8385C126.322 39.8148 126.328 39.786 126.322 39.7583L125.016 34.6975L125.011 34.6918ZM124.886 37.878H123.607L124.396 35.7612L124.891 37.878H124.886ZM131.28 39.1353C131.278 39.11 131.267 39.0865 131.247 39.0694C131.228 39.0524 131.203 39.0432 131.177 39.0437H129.273L129.577 34.7299C129.577 34.6756 129.544 34.627 129.49 34.6165C129.299 34.5861 129.105 34.579 128.913 34.5954C128.853 34.5965 128.792 34.6035 128.733 34.6165C128.71 34.6214 128.689 34.6336 128.674 34.6511C128.658 34.6686 128.649 34.6905 128.647 34.7137L128.288 39.7745C128.288 39.8012 128.293 39.8336 128.315 39.8555C128.325 39.8655 128.337 39.8736 128.35 39.8792C128.363 39.8847 128.377 39.8877 128.391 39.8879H131.128C131.177 39.8879 131.22 39.8555 131.232 39.8069C131.253 39.7048 131.27 39.5922 131.275 39.4739C131.275 39.4253 131.28 39.3718 131.28 39.3119C131.28 39.2536 131.28 39.1944 131.275 39.1353H131.28Z" fill="#007CAF"/>
<defs>
<radialGradient id="paint0_radial_6982_48345" cx="0" cy="0" r="1" gradientUnits="userSpaceOnUse" gradientTransform="translate(6.7633 40.1613) scale(33.7065 33.2792)">
<stop stop-color="#004F80"/>
<stop offset="1" stop-color="#008BCB"/>
</radialGradient>
<radialGradient id="paint1_radial_6982_48345" cx="0" cy="0" r="1" gradientUnits="userSpaceOnUse" gradientTransform="translate(18.3744 48.9793) scale(49.7327 49.102)">
<stop stop-color="#359138"/>
<stop offset="1" stop-color="#C8D400"/>
</radialGradient>
</defs>
</svg>
